<svg xmlns="http://www.w3.org/2000/svg" width="800" height="520" viewBox="0 0 800 520" role="img"><title>Workbench views and tasks</title><defs><marker id="arrow" markerWidth="8" markerHeight="8" refX="7" refY="4" orient="auto"><path d="M0 0L8 4L0 8" fill="none" stroke="#557a68"/></marker></defs><rect width="100%" height="100%" rx="16" fill="#f5f8f6"/><text x="40" y="36" font-family="system-ui,sans-serif" font-size="19" fill="#17392a">Workbench views and tasks</text><path d="M400.0 135 L400.0 165" fill="none" stroke="#557a68" stroke-width="2" marker-end="url(#arrow)"/><path d="M400.0 235 L400.0 265" fill="none" stroke="#557a68" stroke-width="2" marker-end="url(#arrow)"/><path d="M400.0 370 L400.0 340" fill="none" stroke="#557a68" stroke-width="2" marker-end="url(#arrow)"/><rect x="40.0" y="70" width="720.0" height="65" rx="8" fill="white" stroke="#8eaf9e"/><text x="400.0" y="97" text-anchor="middle" font-family="system-ui,sans-serif" font-size="16" fill="#17392a">Workspace → Tab</text><text x="400.0" y="118" text-anchor="middle" font-family="system-ui,sans-serif" font-size="16" fill="#17392a">Organize a layout</text><rect x="40.0" y="170" width="720.0" height="65" rx="8" fill="white" stroke="#8eaf9e"/><text x="400.0" y="197" text-anchor="middle" font-family="system-ui,sans-serif" font-size="16" fill="#17392a">Tiled / floating panels</text><text x="400.0" y="218" text-anchor="middle" font-family="system-ui,sans-serif" font-size="16" fill="#17392a">View and interact</text><rect x="40.0" y="270" width="720.0" height="65" rx="8" fill="white" stroke="#8eaf9e"/><text x="400.0" y="297" text-anchor="middle" font-family="system-ui,sans-serif" font-size="16" fill="#17392a">Terminal on the host</text><text x="400.0" y="318" text-anchor="middle" font-family="system-ui,sans-serif" font-size="16" fill="#17392a">Owns the running program</text><rect x="40.0" y="370" width="720.0" height="65" rx="8" fill="white" stroke="#8eaf9e"/><text x="400.0" y="397" text-anchor="middle" font-family="system-ui,sans-serif" font-size="16" fill="#17392a">App / CLI</text><text x="400.0" y="418" text-anchor="middle" font-family="system-ui,sans-serif" font-size="16" fill="#17392a">Can access the same terminal</text></svg>